<?xml version="1.0" encoding="UTF-8"?>
<svg width="24px" height="24px" viewBox="0 0 24 24" version="1.1" xmlns="http://www.w3.org/2000/svg" xmlns:xlink="http://www.w3.org/1999/xlink">
    <!-- Generator: Sketch 42 (36781) - http://www.bohemiancoding.com/sketch -->
    <title>img/apple-icon</title>
    <desc>Created with Sketch.</desc>
    <defs></defs>
    <g id="assets" stroke="none" stroke-width="1" fill="none" fill-rule="evenodd">
        <g id="img/apple-icon" fill-rule="nonzero" fill="#EA2E49">
            <path d="M16.2431259,11.5649696 C16.2680889,14.2893426 18.6327675,15.195954 18.6599998,15.2073009 C18.6395756,15.2719778 18.2810159,16.4997044 17.4141183,17.7682795 C16.6629584,18.864383 15.8845661,19.9570823 14.6579742,19.9809107 C13.4518066,20.0024696 13.0637451,19.2649259 11.6862404,19.2649259 C10.3087357,19.2649259 9.87755633,19.9570823 8.73606561,20.0024696 C7.55145695,20.0478569 6.65051895,18.8167263 5.89368564,17.7240269 C4.34824791,15.4887022 3.16590861,11.4072488 4.7533296,8.65337403 C5.54079934,7.28494678 6.94894048,6.41918394 8.47849266,6.39649029 C9.64040767,6.37379663 10.7387804,7.17828661 11.4490918,7.17828661 C12.1594031,7.17828661 13.4937899,6.21153702 14.8951229,6.35337235 C15.4828885,6.37833536 17.1304477,6.59052101 18.1891066,8.1393628 C18.1040054,8.19269288 16.2227016,9.28652693 16.2431259,11.5649696 Z M13.9767518,4.87524365 C13.3480463,5.63549298 12.3166663,6.2278496 11.3067676,6.14955594 C11.1684013,5.11583215 11.6790013,4.03792118 12.2610745,3.36502843 C12.9112633,2.60365994 14.007296,2.03634893 14.9128356,2 C15.0297186,3.05520712 14.605354,4.11387515 13.9767518,4.87524365 Z" id="Apple"></path>
        </g>
    </g>
</svg>