<?xml version="1.0" encoding="UTF-8" standalone="no"?>
<svg width="24px" height="24px" viewBox="0 0 24 24" version="1.1" xmlns="http://www.w3.org/2000/svg" xmlns:xlink="http://www.w3.org/1999/xlink">
    <!-- Generator: Sketch 41.2 (35397) - http://www.bohemiancoding.com/sketch -->
    <title>demo-icon</title>
    <desc>Created with Sketch.</desc>
    <defs></defs>
    <g id="Page-1" stroke="none" stroke-width="1" fill="none" fill-rule="evenodd">
        <g id="demo-icon" fill="#EA2E49">
            <path d="M8.2,1 C6.99388496,1 6,1.99388422 6,3.2 L6,20.8 C6,22.0061133 6.99388496,23 8.2,23 L16.0222222,23 C17.2283373,23 18.2222222,22.0061133 18.2222222,20.8 L18.2222222,3.2 C18.2222222,1.99388422 17.2283373,1 16.0222222,1 L8.2,1 Z M8.2,2.46666667 L16.0222222,2.46666667 C16.4411731,2.46666667 16.7555556,2.78104911 16.7555556,3.2 L16.7555556,3.44444444 L7.46666667,3.44444444 L7.46666667,3.2 C7.46666667,2.78104911 7.78104911,2.46666667 8.2,2.46666667 Z M7.46666667,4.91111111 L16.7555556,4.91111111 L16.7555556,17.1333333 L7.46666667,17.1333333 L7.46666667,4.91111111 Z M7.46666667,18.6 L16.7555556,18.6 L16.7555556,20.8 C16.7555556,21.2189533 16.4411731,21.5333333 16.0222222,21.5333333 L8.2,21.5333333 C7.78104911,21.5333333 7.46666667,21.2189533 7.46666667,20.8 L7.46666667,18.6 Z M10.3236111,19.3333333 C9.9395928,19.3532678 9.60834442,19.7208528 9.62834511,20.1048677 C9.6483458,20.4888826 10.0159885,20.8200674 10.4,20.8 L13.8222222,20.8 C14.2096515,20.805478 14.5659997,20.4541346 14.5659997,20.0666667 C14.5659997,19.6791988 14.2096515,19.3278541 13.8222222,19.3333333 L10.4,19.3333333 C10.3745602,19.3320133 10.3490509,19.3320133 10.3236111,19.3333333 Z" id="Shape"></path>
        </g>
    </g>
</svg>