<?xml version="1.0" encoding="UTF-8" standalone="no"?>
<svg width="490px" height="479px" viewBox="0 0 490 479" version="1.1" xmlns="http://www.w3.org/2000/svg" xmlns:xlink="http://www.w3.org/1999/xlink">
    <!-- Generator: Sketch 41.2 (35397) - http://www.bohemiancoding.com/sketch -->
    <title>direction</title>
    <desc>Created with Sketch.</desc>
    <defs>
        <linearGradient x1="50%" y1="0%" x2="50%" y2="100%" id="linearGradient-1">
            <stop stop-color="#CCC9BF" offset="0%"></stop>
            <stop stop-color="#FFFBEE" offset="100%"></stop>
        </linearGradient>
        <linearGradient x1="0%" y1="31.7226201%" x2="86.620263%" y2="31.7226197%" id="linearGradient-2">
            <stop stop-color="#CCC9BF" offset="0%"></stop>
            <stop stop-color="#FFFBEE" offset="100%"></stop>
        </linearGradient>
        <linearGradient x1="50%" y1="0%" x2="50%" y2="100%" id="linearGradient-3">
            <stop stop-color="#FFFEF8" offset="0%"></stop>
            <stop stop-color="#FFFBEE" offset="100%"></stop>
        </linearGradient>
    </defs>
    <g id="assets" stroke="none" stroke-width="1" fill="none" fill-rule="evenodd">
        <g id="direction">
            <polygon id="Rectangle" fill="url(#linearGradient-1)" points="63.1758697 330.767763 148.902046 330.767763 148.902046 390.74066 63.1758697 390.74066 79.1174298 360.754211"></polygon>
            <polygon id="Rectangle" fill="url(#linearGradient-2)" points="343.657806 90.0593928 428.485192 90.0593928 410.68653 118.860507 428.485192 149.661621 343.657806 149.661621"></polygon>
            <polygon id="Rectangle" fill="url(#linearGradient-1)" points="90.7365697 273.825822 323.700259 193.05939 381.793569 212.839326 148.902046 295.429579"></polygon>
            <polygon id="Rectangle" fill="url(#linearGradient-3)" points="87.7240828 213.435752 392.912028 107.876146 392.912028 169.071923 87.7240828 274.000553"></polygon>
            <polygon id="Rectangle" fill="url(#linearGradient-3)" points="99.9606459 311.988305 383.017104 213.364167 383.017104 272.451395 99.9606459 370.888558"></polygon>
            <g id="2-Ribbon-With-Flair" transform="translate(62.000000, 89.000000)" stroke="#253A79" stroke-linecap="round" stroke-linejoin="round">
                <path d="M281.38,0.5 L366.71,0.5 L348.71,30.39 L366.71,60.67 L331.72,60.67 M331.71,18.39 L281.38,0.5 L281.38,36 M87.52,301.16 L0.19,301.16 L18.19,271.27 L0.19,241 L37.18,241 M37.19,283.27 L87.52,301.16 L87.52,265.64" id="Stroke-120" stroke-width="4"></path>
                <path d="M32.41,294.76 L39.04,294.76 M44.7,294.76 L70.2,294.76 M3.98,294.76 L25.48,294.76 M12.7,288.76 L41.83,288.76 M47.53,288.76 L53.33,288.76 M10.96,282.79 L37.08,282.79 M14.8,276.92 L28.79,276.92 M34.29,276.92 L36.45,276.92 M17.72,270.94 L22.85,270.94 M28.91,270.94 L37.33,270.94 M14.51,264.98 L37.19,264.98 M10.89,259 L23.58,259 M29.25,259.01 L37.33,259.01 M11.85,253.01 L37.08,253.01 M15.06,247.03 L37.33,247.03 M3.98,247.03 L10.73,247.03 M323.54,21.07 L316.91,18.77 M311.25,16.8 L285.75,7.93 M314.86,24.05 L290.41,15.55 M286.25,14.11 L281.24,12.37 M306.36,27.07 L281,18.25 M298.5,30.23 L293.25,28.36 M289.75,27.17 L287.58,26.41 M289.07,33.05 L281.38,30.23" id="Stroke-121" stroke-width="3"></path>
                <polygon id="Stroke-124" stroke-width="4" points="37.33 282.83 321.16 183.95 321.16 123.78 37.33 222.66"></polygon>
                <path d="M37.46,228.99 L44.08,226.69 M49.75,224.72 L75.25,215.85 M37.46,234.99 L70.58,223.47 M76.29,221.49 L82.08,219.47 M37.46,240.97 L76.96,227.23 M37.46,246.83 L65.75,237 M71.25,235.08 L73.42,234.33 M37.46,252.81 L46.58,249.64 M52.65,247.53 L80.75,237.76 M37.46,258.77 L76.96,245.03 M37.46,264.75 L61.5,256.39 M67.17,254.42 L75.25,251.61 M42.02,269.16 L71.25,259 M48.42,272.92 L76.96,262.99 M37.33,276.77 L44.08,274.42 M315.78,179.6 L321.28,177.69 M317.49,173.01 L321.28,171.69 M311.78,169.02 L321.28,165.71 M313.33,162.61 L320.39,160.16 M315.18,155.99 L321.28,153.87 M311.78,151.21 L321.28,147.91 M307.49,146.73 L312.54,144.97 M317.2,143.35 L321.28,141.93 M312.06,139.14 L321.28,135.93 M316.74,131.53 L321.28,129.95" id="Stroke-125" stroke-width="3"></path>
                <polygon id="Stroke-128" stroke-width="4" points="26.56 184.92 331.93 78.72 331.93 18.55 26.56 124.75"></polygon>
                <path d="M26.68,131.08 L33.31,128.78 M38.98,126.81 L64.48,117.94 M26.68,137.08 L59.81,125.56 M65.52,123.58 L71.31,121.56 M26.68,143.06 L66.18,129.32 M26.68,148.93 L54.98,139.09 M60.48,137.17 L62.64,136.42 M26.68,154.9 L35.81,151.73 M41.87,149.62 L69.98,139.85 M26.68,160.86 L66.18,147.13 M26.68,166.84 L50.73,158.48 M56.39,156.51 L64.48,153.7 M31.25,171.25 L60.48,161.09 M37.64,175.01 L66.18,165.08 M26.56,178.86 L33.31,176.51 M326.56,74.37 L332.06,72.46 M328.27,67.78 L332.06,66.46 M322.56,63.78 L332.06,60.48 M324.1,57.38 L331.17,54.92 M325.96,50.76 L332.06,48.64 M322.56,45.98 L332.06,42.68 M318.27,41.49 L323.32,39.74 M327.98,38.12 L332.06,36.7 M322.83,33.91 L332.06,30.7 M327.52,26.3 L332.06,24.72" id="Stroke-129" stroke-width="3"></path>
                <path d="M65.08,191.8 L71.59,194.08 M35.94,181.59 L60.62,190.23 M44.87,178.74 L72.84,188.54 M52.9,175.58 L79.95,185.05 M61.78,172.65 L81.91,179.72 M101.09,180.69 L103.33,181.48 M70.05,169.54 L96.45,178.78 M78.8,166.81 L112.25,178.53 M87.15,163.93 L112.25,172.72 M108.2,164.96 L112.25,166.39 M95.69,160.78 L103.33,163.45 M104.15,157.84 L112.25,160.66" id="Stroke-132" stroke-width="3"></path>
                <path d="M112.25,178.53 L112.25,155.02 M112.25,196.56 L112.25,189.16 M26.63,184.91 L86.2,205.63" id="Stroke-133" stroke-width="4"></path>
                <path d="M246.33,108.93 L263.52,115.06 M256.35,106.5 L269.77,111.19 M251.56,128.81 L264.21,133.25 M246.33,121.01 L288.31,135.72 M246.33,115.06 L286.74,129.38 M271.47,117.89 L305.16,129.68 M276.26,113.61 L313.61,126.53 M246.33,133.38 L263.52,139.52 M246.33,139.52 L261.46,144.88 M268.36,135.13 L278.4,138.74" id="Stroke-134" stroke-width="3"></path>
                <path d="M246.33,132.8 L246.33,149.82 M246.33,108.4 L246.33,115.49 M321.16,123.78 L262.29,103.12" id="Stroke-135" stroke-width="4"></path>
                <path d="M246.2,144.91 L217.91,154.74 M246.2,138.93 L237.08,142.1 M112.25,184.07 L118.88,181.76 M124.54,179.79 L139.16,174.74 M231.01,144.21 L173.57,163.93 M246.2,132.97 L173.75,157.96 M246.2,126.99 L222.16,135.35 M216.49,137.32 L112.25,172.72 M241.64,122.58 L112.25,166.39 M235.24,118.83 L112.25,160.66 M246.33,114.97 L239.58,117.32" id="Stroke-136" stroke-width="3"></path>
            </g>
            <path d="M169.415133,284.890318 L168.750133,288.614318 L174.374133,288.614318 L174.032133,290.590318 L168.408133,290.590318 L167.401133,296.290318 L165.064133,296.290318 L167.439133,282.838318 L175.761133,282.838318 L175.400133,284.890318 L169.415133,284.890318 Z M188.263133,296.290318 L185.622133,296.290318 L183.076133,290.552318 L181.290133,290.552318 L180.302133,296.290318 L178.003133,296.290318 L180.378133,282.838318 L184.368133,282.838318 C185.85014,282.838318 186.993296,283.145482 187.797633,283.759818 C188.60197,284.374154 189.004133,285.225979 189.004133,286.315318 C189.004133,287.39199 188.684303,288.262815 188.044633,288.927818 C187.404963,289.592821 186.546805,290.04565 185.470133,290.286318 L188.263133,296.290318 Z M183.380133,288.633318 C184.406138,288.633318 185.197797,288.468653 185.755133,288.139318 C186.312469,287.809983 186.591133,287.284322 186.591133,286.562318 C186.591133,285.903648 186.356802,285.447653 185.888133,285.194318 C185.419464,284.940983 184.79247,284.814318 184.007133,284.814318 L182.316133,284.814318 L181.632133,288.633318 L183.380133,288.633318 Z M200.480133,282.496318 C201.442804,282.496318 202.313629,282.632483 203.092633,282.904818 C203.871637,283.177153 204.539797,283.563482 205.097133,284.063818 C205.654469,284.564154 206.085131,285.175314 206.389133,285.897318 C206.693134,286.619322 206.845133,287.42998 206.845133,288.329318 C206.845133,289.469324 206.651968,290.54598 206.265633,291.559318 C205.879298,292.572656 205.344136,293.452981 204.660133,294.200318 C203.976129,294.947655 203.165471,295.539816 202.228133,295.976818 C201.290795,296.41382 200.264805,296.632318 199.150133,296.632318 C198.162128,296.632318 197.269137,296.499319 196.471133,296.233318 C195.673129,295.967317 194.992302,295.580987 194.428633,295.074318 C193.864963,294.567649 193.431134,293.953322 193.127133,293.231318 C192.823131,292.509314 192.671133,291.698656 192.671133,290.799318 C192.671133,289.659312 192.870631,288.582656 193.269633,287.569318 C193.668635,286.55598 194.216463,285.675655 194.913133,284.928318 C195.609803,284.180981 196.433128,283.58882 197.383133,283.151818 C198.333138,282.714816 199.365461,282.496318 200.480133,282.496318 Z M199.150133,294.580318 C199.998804,294.580318 200.749296,294.40932 201.401633,294.067318 C202.053969,293.725316 202.604964,293.269321 203.054633,292.699318 C203.504302,292.129315 203.846298,291.483322 204.080633,290.761318 C204.314967,290.039314 204.432133,289.298322 204.432133,288.538318 C204.432133,287.993649 204.343467,287.474321 204.166133,286.980318 C203.988799,286.486316 203.729135,286.05882 203.387133,285.697818 C203.045131,285.336816 202.620802,285.048652 202.114133,284.833318 C201.607464,284.617984 201.024803,284.510318 200.366133,284.510318 C199.555462,284.510318 198.823969,284.681316 198.171633,285.023318 C197.519296,285.36532 196.965135,285.821315 196.509133,286.391318 C196.053131,286.961321 195.701634,287.607314 195.454633,288.329318 C195.207632,289.051322 195.084133,289.792314 195.084133,290.552318 C195.084133,291.109654 195.172799,291.632149 195.350133,292.119818 C195.527467,292.607487 195.787131,293.031816 196.129133,293.392818 C196.471135,293.75382 196.895464,294.041984 197.402133,294.257318 C197.908802,294.472652 198.491463,294.580318 199.150133,294.580318 Z M222.539133,296.290318 L224.477133,285.441318 L224.420133,285.441318 L218.359133,296.290318 L216.725133,296.290318 L214.540133,285.441318 L214.502133,285.441318 L212.583133,296.290318 L210.360133,296.290318 L212.735133,282.838318 L216.383133,282.838318 L218.207133,292.471318 L218.245133,292.471318 L223.508133,282.838318 L227.213133,282.838318 L224.857133,296.290318 L222.539133,296.290318 Z M243.629133,284.890318 L241.615133,296.290318 L239.278133,296.290318 L241.273133,284.890318 L237.283133,284.890318 L237.644133,282.838318 L247.942133,282.838318 L247.581133,284.890318 L243.629133,284.890318 Z M257.898133,296.290318 L258.943133,290.305318 L252.787133,290.305318 L251.723133,296.290318 L249.386133,296.290318 L251.761133,282.838318 L254.098133,282.838318 L253.129133,288.291318 L259.304133,288.291318 L260.273133,282.838318 L262.610133,282.838318 L260.235133,296.290318 L257.898133,296.290318 Z M265.612133,296.290318 L267.987133,282.838318 L276.461133,282.838318 L276.100133,284.890318 L269.906133,284.890318 L269.298133,288.367318 L275.207133,288.367318 L274.846133,290.343318 L268.956133,290.343318 L268.272133,294.200318 L274.998133,294.200318 L274.637133,296.290318 L265.612133,296.290318 Z M286.208133,296.290318 L288.583133,282.838318 L290.920133,282.838318 L288.906133,294.200318 L294.663133,294.200318 L294.302133,296.290318 L286.208133,296.290318 Z M298.292133,296.290318 L300.667133,282.838318 L303.004133,282.838318 L300.629133,296.290318 L298.292133,296.290318 Z M314.670133,285.612318 C314.416798,285.206983 314.084302,284.909319 313.672633,284.719318 C313.260964,284.529317 312.814469,284.434318 312.333133,284.434318 C312.092465,284.434318 311.826468,284.472318 311.535133,284.548318 C311.243798,284.624318 310.974634,284.741484 310.727633,284.899818 C310.480632,285.058152 310.2748,285.270317 310.110133,285.536318 C309.945465,285.802319 309.863133,286.125316 309.863133,286.505318 C309.863133,286.986654 310.030965,287.360317 310.366633,287.626318 C310.702301,287.892319 311.15513,288.132984 311.725133,288.348318 C312.903139,288.778987 313.808796,289.295148 314.442133,289.896818 C315.075469,290.498488 315.392133,291.312313 315.392133,292.338318 C315.392133,293.110989 315.240134,293.769649 314.936133,294.314318 C314.632131,294.858987 314.233135,295.302316 313.739133,295.644318 C313.24513,295.98632 312.687803,296.236484 312.067133,296.394818 C311.446463,296.553152 310.819469,296.632318 310.186133,296.632318 C309.742797,296.632318 309.296302,296.587985 308.846633,296.499318 C308.396964,296.410651 307.969468,296.277652 307.564133,296.100318 C307.158798,295.922984 306.781968,295.698153 306.433633,295.425818 C306.085298,295.153483 305.790801,294.82732 305.550133,294.447318 L307.450133,293.136318 C307.703467,293.579654 308.08663,293.943817 308.599633,294.228818 C309.112635,294.51382 309.679463,294.656318 310.300133,294.656318 C310.616801,294.656318 310.930298,294.618318 311.240633,294.542318 C311.550968,294.466318 311.829632,294.342819 312.076633,294.171818 C312.323634,294.000817 312.526299,293.779153 312.684633,293.506818 C312.842967,293.234483 312.922133,292.895653 312.922133,292.490318 C312.922133,292.186317 312.855634,291.917153 312.722633,291.682818 C312.589632,291.448484 312.412301,291.242652 312.190633,291.065318 C311.968965,290.887984 311.712468,290.729652 311.421133,290.590318 C311.129798,290.450984 310.819468,290.324319 310.490133,290.210318 C310.084798,290.058317 309.701635,289.887319 309.340633,289.697318 C308.979631,289.507317 308.659801,289.276153 308.381133,289.003818 C308.102465,288.731483 307.883967,288.40532 307.725633,288.025318 C307.567299,287.645316 307.488133,287.195654 307.488133,286.676318 C307.488133,286.004981 307.630631,285.409654 307.915633,284.890318 C308.200634,284.370982 308.577464,283.933987 309.046133,283.579318 C309.514802,283.22465 310.056296,282.955486 310.670633,282.771818 C311.284969,282.588151 311.921463,282.496318 312.580133,282.496318 C312.922135,282.496318 313.273631,282.534318 313.634633,282.610318 C313.995635,282.686318 314.343965,282.797151 314.679633,282.942818 C315.015301,283.088485 315.331965,283.268984 315.629633,283.484318 C315.927301,283.699652 316.177465,283.952983 316.380133,284.244318 L314.670133,285.612318 Z M325.880133,284.890318 L323.866133,296.290318 L321.529133,296.290318 L323.524133,284.890318 L319.534133,284.890318 L319.895133,282.838318 L330.193133,282.838318 L329.832133,284.890318 L325.880133,284.890318 Z" id="FROM-THE-LIST" fill="#EA2E49" transform="translate(247.628633, 289.564318) rotate(-19.000000) translate(-247.628633, -289.564318) "></path>
            <path d="M149.379633,183.612318 C149.126298,183.206983 148.793802,182.909319 148.382133,182.719318 C147.970464,182.529317 147.523969,182.434318 147.042633,182.434318 C146.801965,182.434318 146.535968,182.472318 146.244633,182.548318 C145.953298,182.624318 145.684134,182.741484 145.437133,182.899818 C145.190132,183.058152 144.9843,183.270317 144.819633,183.536318 C144.654965,183.802319 144.572633,184.125316 144.572633,184.505318 C144.572633,184.986654 144.740465,185.360317 145.076133,185.626318 C145.411801,185.892319 145.86463,186.132984 146.434633,186.348318 C147.612639,186.778987 148.518296,187.295148 149.151633,187.896818 C149.784969,188.498488 150.101633,189.312313 150.101633,190.338318 C150.101633,191.110989 149.949634,191.769649 149.645633,192.314318 C149.341631,192.858987 148.942635,193.302316 148.448633,193.644318 C147.95463,193.98632 147.397303,194.236484 146.776633,194.394818 C146.155963,194.553152 145.528969,194.632318 144.895633,194.632318 C144.452297,194.632318 144.005802,194.587985 143.556133,194.499318 C143.106464,194.410651 142.678968,194.277652 142.273633,194.100318 C141.868298,193.922984 141.491468,193.698153 141.143133,193.425818 C140.794798,193.153483 140.500301,192.82732 140.259633,192.447318 L142.159633,191.136318 C142.412967,191.579654 142.79613,191.943817 143.309133,192.228818 C143.822135,192.51382 144.388963,192.656318 145.009633,192.656318 C145.326301,192.656318 145.639798,192.618318 145.950133,192.542318 C146.260468,192.466318 146.539132,192.342819 146.786133,192.171818 C147.033134,192.000817 147.235799,191.779153 147.394133,191.506818 C147.552467,191.234483 147.631633,190.895653 147.631633,190.490318 C147.631633,190.186317 147.565134,189.917153 147.432133,189.682818 C147.299132,189.448484 147.121801,189.242652 146.900133,189.065318 C146.678465,188.887984 146.421968,188.729652 146.130633,188.590318 C145.839298,188.450984 145.528968,188.324319 145.199633,188.210318 C144.794298,188.058317 144.411135,187.887319 144.050133,187.697318 C143.689131,187.507317 143.369301,187.276153 143.090633,187.003818 C142.811965,186.731483 142.593467,186.40532 142.435133,186.025318 C142.276799,185.645316 142.197633,185.195654 142.197633,184.676318 C142.197633,184.004981 142.340131,183.409654 142.625133,182.890318 C142.910134,182.370982 143.286964,181.933987 143.755633,181.579318 C144.224302,181.22465 144.765796,180.955486 145.380133,180.771818 C145.994469,180.588151 146.630963,180.496318 147.289633,180.496318 C147.631635,180.496318 147.983131,180.534318 148.344133,180.610318 C148.705135,180.686318 149.053465,180.797151 149.389133,180.942818 C149.724801,181.088485 150.041465,181.268984 150.339133,181.484318 C150.636801,181.699652 150.886965,181.952983 151.089633,182.244318 L149.379633,183.612318 Z M154.186633,194.290318 L156.561633,180.838318 L165.035633,180.838318 L164.674633,182.890318 L158.480633,182.890318 L157.872633,186.367318 L163.781633,186.367318 L163.420633,188.343318 L157.530633,188.343318 L156.846633,192.200318 L163.572633,192.200318 L163.211633,194.290318 L154.186633,194.290318 Z M167.657633,194.290318 L170.032633,180.838318 L172.369633,180.838318 L170.355633,192.200318 L176.112633,192.200318 L175.751633,194.290318 L167.657633,194.290318 Z M179.741633,194.290318 L182.116633,180.838318 L190.590633,180.838318 L190.229633,182.890318 L184.035633,182.890318 L183.427633,186.367318 L189.336633,186.367318 L188.975633,188.343318 L183.085633,188.343318 L182.401633,192.200318 L189.127633,192.200318 L188.766633,194.290318 L179.741633,194.290318 Z M204.992633,192.181318 C204.726632,192.52332 204.416301,192.84315 204.061633,193.140818 C203.706964,193.438486 203.307968,193.69815 202.864633,193.919818 C202.421297,194.141486 201.933636,194.315651 201.401633,194.442318 C200.86963,194.568985 200.286969,194.632318 199.653633,194.632318 C198.754295,194.632318 197.937303,194.492986 197.202633,194.214318 C196.467963,193.93565 195.837802,193.542987 195.312133,193.036318 C194.786464,192.529649 194.377968,191.921655 194.086633,191.212318 C193.795298,190.502981 193.649633,189.717656 193.649633,188.856318 C193.649633,187.690979 193.852298,186.601656 194.257633,185.588318 C194.662968,184.57498 195.223463,183.691489 195.939133,182.937818 C196.654803,182.184148 197.493961,181.58882 198.456633,181.151818 C199.419304,180.714816 200.457961,180.496318 201.572633,180.496318 C202.066635,180.496318 202.544797,180.546984 203.007133,180.648318 C203.469469,180.749652 203.900131,180.888984 204.299133,181.066318 C204.698135,181.243652 205.055965,181.458983 205.372633,181.712318 C205.689301,181.965653 205.948965,182.244317 206.151633,182.548318 L204.308633,183.935318 C204.207299,183.783317 204.0743,183.621819 203.909633,183.450818 C203.744965,183.279817 203.542301,183.124652 203.301633,182.985318 C203.060965,182.845984 202.791801,182.731985 202.494133,182.643318 C202.196465,182.554651 201.863968,182.510318 201.496633,182.510318 C200.698629,182.510318 199.967136,182.681316 199.302133,183.023318 C198.63713,183.36532 198.067135,183.821315 197.592133,184.391318 C197.117131,184.961321 196.746634,185.607314 196.480633,186.329318 C196.214632,187.051322 196.081633,187.792314 196.081633,188.552318 C196.081633,189.109654 196.167132,189.632149 196.338133,190.119818 C196.509134,190.607487 196.756131,191.031816 197.079133,191.392818 C197.402134,191.75382 197.804297,192.041984 198.285633,192.257318 C198.766969,192.472652 199.317963,192.580318 199.938633,192.580318 C200.60997,192.580318 201.24963,192.440986 201.857633,192.162318 C202.465636,191.88365 203.010297,191.446654 203.491633,190.851318 L204.992633,192.181318 Z M215.157633,182.890318 L213.143633,194.290318 L210.806633,194.290318 L212.801633,182.890318 L208.811633,182.890318 L209.172633,180.838318 L219.470633,180.838318 L219.109633,182.890318 L215.157633,182.890318 Z M236.114633,194.290318 L235.563633,191.193318 L229.806633,191.193318 L227.887633,194.290318 L225.113633,194.290318 L233.891633,180.838318 L235.924633,180.838318 L238.603633,194.290318 L236.114633,194.290318 Z M234.347633,183.536318 L230.946633,189.179318 L235.240633,189.179318 L234.347633,183.536318 Z M255.513633,180.838318 C256.99564,180.838318 258.129296,181.148648 258.914633,181.769318 C259.69997,182.389988 260.092633,183.257646 260.092633,184.372318 C260.092633,185.132322 259.956468,185.784649 259.684133,186.329318 C259.411798,186.873987 259.025469,187.32365 258.525133,187.678318 C258.024797,188.032987 257.426303,188.292651 256.729633,188.457318 C256.032963,188.621986 255.266637,188.704318 254.430633,188.704318 L252.397633,188.704318 L251.409633,194.290318 L249.091633,194.290318 L251.466633,180.838318 L255.513633,180.838318 Z M254.525633,186.728318 C254.994302,186.728318 255.428131,186.693485 255.827133,186.623818 C256.226135,186.554151 256.564965,186.436986 256.843633,186.272318 C257.122301,186.107651 257.340799,185.892319 257.499133,185.626318 C257.657467,185.360317 257.736633,185.024653 257.736633,184.619318 C257.736633,184.26465 257.6733,183.970153 257.546633,183.735818 C257.419966,183.501484 257.242634,183.317819 257.014633,183.184818 C256.786632,183.051817 256.514301,182.956818 256.197633,182.899818 C255.880965,182.842818 255.532635,182.814318 255.152633,182.814318 L253.442633,182.814318 L252.739633,186.728318 L254.525633,186.728318 Z M273.297633,194.290318 L270.656633,194.290318 L268.110633,188.552318 L266.324633,188.552318 L265.336633,194.290318 L263.037633,194.290318 L265.412633,180.838318 L269.402633,180.838318 C270.88464,180.838318 272.027796,181.145482 272.832133,181.759818 C273.63647,182.374154 274.038633,183.225979 274.038633,184.315318 C274.038633,185.39199 273.718803,186.262815 273.079133,186.927818 C272.439463,187.592821 271.581305,188.04565 270.504633,188.286318 L273.297633,194.290318 Z M268.414633,186.633318 C269.440638,186.633318 270.232297,186.468653 270.789633,186.139318 C271.346969,185.809983 271.625633,185.284322 271.625633,184.562318 C271.625633,183.903648 271.391302,183.447653 270.922633,183.194318 C270.453964,182.940983 269.82697,182.814318 269.041633,182.814318 L267.350633,182.814318 L266.666633,186.633318 L268.414633,186.633318 Z M285.514633,180.496318 C286.477304,180.496318 287.348129,180.632483 288.127133,180.904818 C288.906137,181.177153 289.574297,181.563482 290.131633,182.063818 C290.688969,182.564154 291.119631,183.175314 291.423633,183.897318 C291.727634,184.619322 291.879633,185.42998 291.879633,186.329318 C291.879633,187.469324 291.686468,188.54598 291.300133,189.559318 C290.913798,190.572656 290.378636,191.452981 289.694633,192.200318 C289.010629,192.947655 288.199971,193.539816 287.262633,193.976818 C286.325295,194.41382 285.299305,194.632318 284.184633,194.632318 C283.196628,194.632318 282.303637,194.499319 281.505633,194.233318 C280.707629,193.967317 280.026802,193.580987 279.463133,193.074318 C278.899463,192.567649 278.465634,191.953322 278.161633,191.231318 C277.857631,190.509314 277.705633,189.698656 277.705633,188.799318 C277.705633,187.659312 277.905131,186.582656 278.304133,185.569318 C278.703135,184.55598 279.250963,183.675655 279.947633,182.928318 C280.644303,182.180981 281.467628,181.58882 282.417633,181.151818 C283.367638,180.714816 284.399961,180.496318 285.514633,180.496318 Z M284.184633,192.580318 C285.033304,192.580318 285.783796,192.40932 286.436133,192.067318 C287.088469,191.725316 287.639464,191.269321 288.089133,190.699318 C288.538802,190.129315 288.880798,189.483322 289.115133,188.761318 C289.349467,188.039314 289.466633,187.298322 289.466633,186.538318 C289.466633,185.993649 289.377967,185.474321 289.200633,184.980318 C289.023299,184.486316 288.763635,184.05882 288.421633,183.697818 C288.079631,183.336816 287.655302,183.048652 287.148633,182.833318 C286.641964,182.617984 286.059303,182.510318 285.400633,182.510318 C284.589962,182.510318 283.858469,182.681316 283.206133,183.023318 C282.553796,183.36532 281.999635,183.821315 281.543633,184.391318 C281.087631,184.961321 280.736134,185.607314 280.489133,186.329318 C280.242132,187.051322 280.118633,187.792314 280.118633,188.552318 C280.118633,189.109654 280.207299,189.632149 280.384633,190.119818 C280.561967,190.607487 280.821631,191.031816 281.163633,191.392818 C281.505635,191.75382 281.929964,192.041984 282.436633,192.257318 C282.943302,192.472652 283.525963,192.580318 284.184633,192.580318 Z M297.769633,180.838318 L302.367633,180.838318 C303.127637,180.838318 303.881296,180.942817 304.628633,181.151818 C305.37597,181.360819 306.047297,181.690149 306.642633,182.139818 C307.237969,182.589487 307.719298,183.172148 308.086633,183.887818 C308.453968,184.603488 308.637633,185.461646 308.637633,186.462318 C308.637633,187.640324 308.431802,188.710647 308.020133,189.673318 C307.608464,190.63599 307.035303,191.459315 306.300633,192.143318 C305.565963,192.827322 304.698305,193.35615 303.697633,193.729818 C302.696961,194.103487 301.607639,194.290318 300.429633,194.290318 L295.394633,194.290318 L297.769633,180.838318 Z M298.073633,192.238318 L300.524633,192.238318 C301.461971,192.238318 302.285296,192.08632 302.994633,191.782318 C303.70397,191.478317 304.296131,191.069821 304.771133,190.556818 C305.246135,190.043816 305.603965,189.461155 305.844633,188.808818 C306.085301,188.156481 306.205633,187.475655 306.205633,186.766318 C306.205633,186.234315 306.116967,185.727654 305.939633,185.246318 C305.762299,184.764982 305.493135,184.346987 305.132133,183.992318 C304.771131,183.63765 304.315136,183.355819 303.764133,183.146818 C303.21313,182.937817 302.557637,182.833318 301.797633,182.833318 L299.726633,182.833318 L298.073633,192.238318 Z M323.704633,189.350318 C323.565299,190.148322 323.340468,190.873481 323.030133,191.525818 C322.719798,192.178155 322.323969,192.732316 321.842633,193.188318 C321.361297,193.64432 320.78497,193.998983 320.113633,194.252318 C319.442296,194.505653 318.675971,194.632318 317.814633,194.632318 C317.041962,194.632318 316.345303,194.534152 315.724633,194.337818 C315.103963,194.141484 314.578302,193.859653 314.147633,193.492318 C313.716964,193.124983 313.387634,192.684821 313.159633,192.171818 C312.931632,191.658816 312.817633,191.079321 312.817633,190.433318 C312.817633,190.255984 312.823966,190.078652 312.836633,189.901318 C312.8493,189.723984 312.874633,189.540319 312.912633,189.350318 L314.413633,180.838318 L316.750633,180.838318 L315.268633,189.255318 C315.243299,189.394652 315.2243,189.540317 315.211633,189.692318 C315.198966,189.844319 315.192633,189.989984 315.192633,190.129318 C315.192633,190.458653 315.240132,190.768983 315.335133,191.060318 C315.430133,191.351653 315.585298,191.611317 315.800633,191.839318 C316.015967,192.067319 316.291465,192.247817 316.627133,192.380818 C316.962801,192.513819 317.371297,192.580318 317.852633,192.580318 C318.473303,192.580318 318.992631,192.482152 319.410633,192.285818 C319.828635,192.089484 320.170632,191.832986 320.436633,191.516318 C320.702634,191.19965 320.905299,190.84182 321.044633,190.442818 C321.183967,190.043816 321.291633,189.647987 321.367633,189.255318 L322.849633,180.838318 L325.205633,180.838318 L323.704633,189.350318 Z M339.873633,192.181318 C339.607632,192.52332 339.297301,192.84315 338.942633,193.140818 C338.587964,193.438486 338.188968,193.69815 337.745633,193.919818 C337.302297,194.141486 336.814636,194.315651 336.282633,194.442318 C335.75063,194.568985 335.167969,194.632318 334.534633,194.632318 C333.635295,194.632318 332.818303,194.492986 332.083633,194.214318 C331.348963,193.93565 330.718802,193.542987 330.193133,193.036318 C329.667464,192.529649 329.258968,191.921655 328.967633,191.212318 C328.676298,190.502981 328.530633,189.717656 328.530633,188.856318 C328.530633,187.690979 328.733298,186.601656 329.138633,185.588318 C329.543968,184.57498 330.104463,183.691489 330.820133,182.937818 C331.535803,182.184148 332.374961,181.58882 333.337633,181.151818 C334.300304,180.714816 335.338961,180.496318 336.453633,180.496318 C336.947635,180.496318 337.425797,180.546984 337.888133,180.648318 C338.350469,180.749652 338.781131,180.888984 339.180133,181.066318 C339.579135,181.243652 339.936965,181.458983 340.253633,181.712318 C340.570301,181.965653 340.829965,182.244317 341.032633,182.548318 L339.189633,183.935318 C339.088299,183.783317 338.9553,183.621819 338.790633,183.450818 C338.625965,183.279817 338.423301,183.124652 338.182633,182.985318 C337.941965,182.845984 337.672801,182.731985 337.375133,182.643318 C337.077465,182.554651 336.744968,182.510318 336.377633,182.510318 C335.579629,182.510318 334.848136,182.681316 334.183133,183.023318 C333.51813,183.36532 332.948135,183.821315 332.473133,184.391318 C331.998131,184.961321 331.627634,185.607314 331.361633,186.329318 C331.095632,187.051322 330.962633,187.792314 330.962633,188.552318 C330.962633,189.109654 331.048132,189.632149 331.219133,190.119818 C331.390134,190.607487 331.637131,191.031816 331.960133,191.392818 C332.283134,191.75382 332.685297,192.041984 333.166633,192.257318 C333.647969,192.472652 334.198963,192.580318 334.819633,192.580318 C335.49097,192.580318 336.13063,192.440986 336.738633,192.162318 C337.346636,191.88365 337.891297,191.446654 338.372633,190.851318 L339.873633,192.181318 Z M350.038633,182.890318 L348.024633,194.290318 L345.687633,194.290318 L347.682633,182.890318 L343.692633,182.890318 L344.053633,180.838318 L354.351633,180.838318 L353.990633,182.890318 L350.038633,182.890318 Z" id="SELECT-A-PRODUCT" fill="#EA2E49" transform="translate(247.305633, 187.564318) rotate(-19.000000) translate(-247.305633, -187.564318) "></path>
        </g>
    </g>
</svg>