<?xml version="1.0" encoding="UTF-8"?>
<svg width="24px" height="24px" viewBox="0 0 24 24" version="1.1" xmlns="http://www.w3.org/2000/svg" xmlns:xlink="http://www.w3.org/1999/xlink">
    <!-- Generator: Sketch 42 (36781) - http://www.bohemiancoding.com/sketch -->
    <title>img/google-icon</title>
    <desc>Created with Sketch.</desc>
    <defs></defs>
    <g id="assets" stroke="none" stroke-width="1" fill="none" fill-rule="evenodd">
        <g id="img/google-icon" fill="#EA2E49">
            <path d="M5.04,4 C5.02,4.062 5,4.123 5,4.205 L5,19.692 C5,19.836 5.04,19.918 5.122,20 L12.732,11.938 L5.04,4 Z" id="Google-Play" opacity="0.800000012"></path>
            <path d="M13.246,12.472 L15.214,14.502 L12.404,16.102 C12.404,16.102 8.834,18.132 6.866,19.262 L13.246,12.472 L13.246,12.472 Z" id="Path"></path>
            <path d="M13.779,11.918 L15.891,14.113 C16.221,13.928 18.804,12.451 19.173,12.246 C19.563,12.021 19.523,11.713 19.193,11.549 C18.886,11.384 16.303,9.907 15.913,9.661 L13.778,11.918 L13.779,11.918 Z" id="Path" opacity="0.400000006"></path>
            <path d="M13.245,11.385 L15.235,9.272 L12.403,7.652 C12.403,7.652 7.768,5.004 6.23,4.12 L13.246,11.386 L13.245,11.385 Z" id="Path" opacity="0.600000024"></path>
        </g>
    </g>
</svg>