<?xml version="1.0" encoding="UTF-8"?>
<svg width="24px" height="24px" viewBox="0 0 24 24" version="1.1" xmlns="http://www.w3.org/2000/svg" xmlns:xlink="http://www.w3.org/1999/xlink">
    <!-- Generator: Sketch 44.1 (41455) - http://www.bohemiancoding.com/sketch -->
    <title>img/img-icon</title>
    <desc>Created with Sketch.</desc>
    <defs></defs>
    <g id="assets" stroke="none" stroke-width="1" fill="none" fill-rule="evenodd">
        <g id="img/img-icon" fill-rule="nonzero" fill="#EA2E49">
            <path d="M18.6648131,18.3299999 L5.33214716,18.3299999 C4.59766417,18.3299999 4.00048017,17.7328159 4.00048017,16.9983329 L4.00048017,6.33166699 C4.00048017,5.597184 4.59766417,5 5.33214716,5 L18.6648131,5 C19.3992961,5 19.9964801,5.597184 19.9964801,6.33166699 L19.9964801,16.9983329 C19.9964801,17.7328159 19.3992961,18.3299999 18.6648131,18.3299999 Z M18.6648131,16.9969999 L18.6648131,17.6634999 L18.6648131,16.9969999 Z M18.6634801,6.33166699 L5.33214716,6.33299999 L5.33348016,16.9983329 L18.6634801,16.9969999 L18.6634801,6.33166699 Z M15.3309801,10.9985 C14.2285891,10.9985 13.3314801,10.101391 13.3314801,8.99899998 C13.3314801,7.89660898 14.2285891,6.99949999 15.3309801,6.99949999 C16.4333711,6.99949999 17.3304801,7.89660898 17.3304801,8.99899998 C17.3304801,10.101391 16.4333711,10.9985 15.3309801,10.9985 Z M15.3309801,8.33249998 C14.9630721,8.33249998 14.6644801,8.63175848 14.6644801,8.99899998 C14.6644801,9.36624148 14.9630721,9.66549997 15.3309801,9.66549997 C15.6988881,9.66549997 15.9974801,9.36624148 15.9974801,8.99899998 C15.9974801,8.63175848 15.6988881,8.33249998 15.3309801,8.33249998 Z M4.66698017,15.6639999 C4.48169317,15.6639999 4.29707267,15.5873524 4.16510567,15.4360569 C3.92249967,15.1594594 3.95049267,14.7382314 4.22775667,14.4956254 L9.55975664,9.83012547 C9.80769464,9.61417947 10.1736031,9.61018047 10.4255401,9.81946147 L14.4245401,13.1519615 C14.7071361,13.3879025 14.7451266,13.8077974 14.5098521,14.0910599 C14.2739111,14.3736559 13.8546826,14.4116464 13.5707536,14.1763719 L10.0089776,11.207781 L5.10553716,15.4987079 C4.97956866,15.6100134 4.82294116,15.6639999 4.66698017,15.6639999 Z M19.3293136,15.6639999 C19.1833501,15.6639999 19.0367201,15.6166784 18.9134176,15.5180364 L15.9974801,13.18462 L13.0815426,15.5180364 C12.7929481,15.7486454 12.3737196,15.7013239 12.1444436,15.4140624 C11.9145011,15.1261344 11.9611561,14.7069059 12.2484176,14.4769634 L15.5809176,11.8109635 C15.8241901,11.6163455 16.1707701,11.6163455 16.4140426,11.8109635 L19.7465426,14.4769634 C20.0338041,14.7075724 20.0804591,15.1268009 19.8505166,15.4140624 C19.7185496,15.5780214 19.5252646,15.6639999 19.3293136,15.6639999 Z" id="Shape"></path>
        </g>
    </g>
</svg>