<?xml version="1.0" encoding="UTF-8"?>
<svg width="24px" height="24px" viewBox="0 0 24 24" version="1.1" xmlns="http://www.w3.org/2000/svg" xmlns:xlink="http://www.w3.org/1999/xlink">
    <!-- Generator: Sketch 42 (36781) - http://www.bohemiancoding.com/sketch -->
    <title>img/invision-icon</title>
    <desc>Created with Sketch.</desc>
    <defs></defs>
    <g id="assets" stroke="none" stroke-width="1" fill="none" fill-rule="evenodd">
        <g id="img/invision-icon">
            <g id="invision" transform="translate(3.000000, 3.000000)">
                <g id="Group"></g>
                <path d="M16.3682578,0 C17.2694531,0 18,0.730546875 18,1.63174219 L18,16.3682578 C18,17.2694531 17.2694531,18 16.3682578,18 L1.63174219,18 C0.730546875,18 1.77635684e-15,17.2694531 1.77635684e-15,16.3682578 L1.77635684e-15,1.63174219 C1.77635684e-15,0.730546875 0.730546875,0 1.63174219,0 L16.3682578,0 Z M5.73269531,6.16682031 C6.33105469,6.16682031 6.8323125,5.69783594 6.8323125,5.08316406 C6.8323125,4.46891406 6.33105469,4 5.73269531,4 C5.13433594,4 4.63321875,4.46891406 4.63321875,5.08316406 C4.63321875,5.69776563 5.13433594,6.16682031 5.73269531,6.16682031 Z M3.45274219,11.9690078 C3.388125,12.2439297 3.35571094,12.5407891 3.35571094,12.7829453 C3.35571094,13.7371563 3.87314063,14.3706016 4.97275781,14.3706016 C5.88471094,14.3706016 6.62404688,13.8290547 7.15638281,12.9545781 L6.83132813,14.2590859 L8.64222656,14.2590859 L9.67722656,10.1079063 C9.93597656,9.056875 10.4372344,8.51132031 11.1973125,8.51132031 C11.7956016,8.51132031 12.1674844,8.88341406 12.1674844,9.49766406 C12.1674844,9.675625 12.1513125,9.86947656 12.086625,10.0797813 L11.5529531,11.9878516 C11.4720937,12.2627734 11.4398906,12.5378359 11.4398906,12.796375 C11.4398906,13.7022109 11.9733516,14.3647656 13.0891406,14.3647656 C14.0432109,14.3647656 14.8031484,13.7505859 15.2236172,12.2790156 L14.5121953,12.004375 C14.1564141,12.9902266 13.8491484,13.1684688 13.6065703,13.1684688 C13.3639922,13.1684688 13.2346172,13.0068906 13.2346172,12.6836641 C13.2346172,12.5381172 13.2671016,12.3766094 13.3154766,12.182125 L13.8330469,10.3232031 C13.9623516,9.88670313 14.0109375,9.49963281 14.0109375,9.14399219 C14.0109375,7.75335156 13.17,7.02758594 12.1513125,7.02758594 C11.1973125,7.02758594 10.227,7.88814063 9.74198438,8.79383594 L10.097625,7.16821094 L7.33265625,7.16821094 L6.94453125,8.60005469 L8.23821094,8.60005469 L7.44157031,11.7894297 C6.816,13.1800703 5.66688281,13.2026406 5.52267188,13.1703672 C5.28585938,13.1169297 5.13440625,13.027 5.13440625,12.7193125 C5.13440625,12.5417734 5.16675,12.28675 5.24760938,11.9792734 L6.4605,7.16821094 L3.388125,7.16821094 L3,8.60005469 L4.27736719,8.60005469 L3.4528125,11.9690078 L3.45274219,11.9690078 Z" id="Combined-Shape" fill="#EA2E49" fill-rule="nonzero"></path>
            </g>
        </g>
    </g>
</svg>