<?xml version="1.0" encoding="UTF-8"?>
<svg width="200px" height="51px" viewBox="0 0 200 51" version="1.1" xmlns="http://www.w3.org/2000/svg" xmlns:xlink="http://www.w3.org/1999/xlink">
    <!-- Generator: Sketch 43.2 (39069) - http://www.bohemiancoding.com/sketch -->
    <title>PBL Logo 200</title>
    <desc>Created with Sketch.</desc>
    <defs></defs>
    <g id="Symbols" stroke="none" stroke-width="1" fill="none" fill-rule="evenodd">
        <g id="PBL-Logo-200" fill-rule="nonzero" fill="#FFFFFF">
            <g id="Layer_1">
                <g>
                    <g id="Group">
                        <path d="M0.593055556,0.950209084 L13.4416667,0.950209084 C20.3770833,0.950209084 25.1756944,4.15803172 25.1756944,11.5585652 C25.1756944,19.1720288 21.0631944,22.5095516 13.7430556,22.5095516 L8.98819444,22.5095516 L8.98819444,33.2032185 L0.592361111,33.2032185 L0.592361111,0.950209084 L0.593055556,0.950209084 Z M8.98888889,15.749889 L10.4,15.749889 C13.4416667,15.749889 16.4395833,15.749889 16.4395833,11.8144975 C16.4395833,7.75148666 13.6534722,7.7084845 10.4,7.7084845 L8.98888889,7.7084845 L8.98888889,15.749889 Z" id="Shape"></path>
                        <polygon id="Shape" points="72.3402778 26.1030065 82.4034722 26.1030065 82.4034722 33.2032185 63.9458333 33.2032185 63.9458333 0.950209084 72.3402778 0.950209084 72.3402778 26.1030065"></polygon>
                        <polygon id="Shape" points="93.9902778 26.1030065 104.054167 26.1030065 104.054167 33.2032185 85.5979167 33.2032185 85.5979167 0.950209084 93.9902778 0.950209084"></polygon>
                        <path d="M117.471528,27.5990656 L115.24375,33.2032185 L106.345833,33.2032185 L118.757639,0.950209084 L127.922917,0.950209084 L140.084028,33.2032185 L131.133333,33.2032185 L129.034028,27.5990656 L117.471528,27.5990656 Z M123.340278,10.9170007 L123.251389,10.9170007 L119.785417,21.1834203 L126.765278,21.1834203 L123.340278,10.9170007 Z" id="Shape"></path>
                        <path d="M169.004167,33.2032185 L158.55625,33.2032185 L150.632639,20.797788 L150.545833,20.797788 L150.545833,33.2032185 L142.154861,33.2032185 L142.154861,0.950209084 L154.701389,0.950209084 C161.079167,0.950209084 165.91875,3.98741024 165.91875,10.8739986 C165.91875,15.3219481 163.438194,19.1720288 158.856944,19.9842149 L169.004167,33.2032185 Z M150.545833,15.4079524 L151.360417,15.4079524 C154.102083,15.4079524 157.184028,14.8953944 157.184028,11.3872502 C157.184028,7.88118673 154.102083,7.36654795 151.360417,7.36654795 L150.545833,7.36654795 L150.545833,15.4079524 Z" id="Shape"></path>
                        <path d="M171.5875,0.950209084 L183.496528,0.950209084 C192.489583,0.950209084 199.895139,8.00880606 199.895139,17.0760202 C199.895139,26.1418472 192.444444,33.2032185 183.496528,33.2032185 L171.5875,33.2032185 L171.5875,0.950209084 Z M179.981944,26.1030065 L181.865972,26.1030065 C186.877778,26.1030065 191.160417,23.3647397 191.160417,17.0760202 C191.160417,11.302633 187.347917,8.05042105 181.951389,8.05042105 L179.981944,8.05042105 L179.981944,26.1030065 Z" id="Shape"></path>
                        <g transform="translate(0.000000, 36.759913)" id="Shape">
                            <path d="M0.574305556,0.156056236 L4.18263889,0.156056236 L4.18263889,5.88297332 L4.22013889,5.88297332 C4.44583333,4.3952372 5.96875,3.98671665 7.45208333,3.98671665 L8.52361111,3.98671665 C13.0909722,3.98671665 13.6548611,5.60415285 13.6548611,8.02129056 L13.6548611,9.73166691 C13.6548611,12.1488046 13.0909722,13.7662408 8.52361111,13.7662408 L7.47222222,13.7662408 C5.29166667,13.7662408 4.38958333,13.0407527 3.99444444,11.8692906 L3.95694444,11.8692906 L3.95694444,13.6171204 L0.574305556,13.6171204 L0.574305556,0.156056236 L0.574305556,0.156056236 Z M3.95694444,9.34048594 C3.95694444,10.7713482 4.70833333,11.0883158 6.1375,11.0883158 L8.26111111,11.0883158 C9.99027778,11.0883158 10.1590278,10.4932213 10.1590278,9.4334261 L10.1590278,8.31883778 C10.1590278,7.25904254 9.99027778,6.66325451 8.26111111,6.66325451 L6.1375,6.66325451 C4.70833333,6.66325451 3.95694444,6.9788349 3.95694444,8.41177794 L3.95694444,9.34048594 L3.95694444,9.34048594 Z"></path>
                            <path d="M15.0493056,10.2886143 C15.0493056,7.704323 16.8541667,7.55658976 20.3506944,7.55658976 C22.3243056,7.55658976 23.4138889,7.61138284 24.1083333,8.31883778 L24.1083333,7.48237635 C24.1083333,6.5515876 23.8270833,6.21797404 22.4173611,6.21797404 L20.29375,6.21797404 C19.2409722,6.21797404 18.9409722,6.3109142 18.9020833,6.97952848 L15.40625,6.97952848 C15.40625,4.41465753 16.6847222,3.98741024 19.7298611,3.98741024 L23.9208333,3.98741024 C26.4013889,3.98741024 27.7180556,5.1581788 27.7180556,7.38874261 L27.7180556,13.6171204 L24.2972222,13.6171204 L24.2972222,12.5385984 C23.3006944,13.5616337 22.9243056,13.7669344 21.1208333,13.7669344 L18.6583333,13.7669344 C16.4597222,13.7849676 15.0493056,13.30154 15.0493056,11.0702826 L15.0493056,10.2886143 Z M21.4777778,11.5349834 C23.9583333,11.5349834 24.1840278,11.1632228 24.1840278,10.5306748 C24.1840278,9.82391348 23.9763889,9.56312617 21.9847222,9.56312617 L20.3875,9.56312617 C18.8652778,9.56312617 18.5458333,9.89743331 18.5458333,10.6797952 C18.5458333,11.2929229 19.0347222,11.5342898 20.44375,11.5342898 L21.4777778,11.5342898 L21.4777778,11.5349834 Z"></path>
                            <path d="M29.6006944,4.13583706 L33.2090278,4.13583706 L33.2090278,5.65963951 L33.2465278,5.65963951 C33.8861111,4.33905696 35.1444444,3.98602307 37.0805556,3.98602307 C39.3166667,3.98602307 42.4368056,4.07965681 42.4368056,8.16902379 L42.4368056,13.6164268 L38.8291667,13.6164268 L38.8291667,8.16902379 C38.8291667,7.23892862 38.0763889,6.77353425 36.4986111,6.77353425 L35.6715278,6.77353425 C34.1305556,6.77353425 33.2097222,7.48168277 33.2097222,8.83833165 L33.2097222,13.6164268 L29.6013889,13.6164268 L29.6013889,4.13583706 L29.6006944,4.13583706 Z"></path>
                            <polygon points="44.1138889 0.156056236 47.7222222 0.156056236 47.7222222 7.25834895 48.3986111 7.25834895 51.575 4.13583706 56.3111111 4.13583706 51.4993056 8.57823792 56.8944444 13.6164268 52.2888889 13.6164268 48.4361111 9.82391348 47.7222222 9.82391348 47.7222222 13.6164268 44.1138889 13.6164268 44.1138889 0.156056236"></polygon>
                            <path d="M58.0631944,4.13583706 L61.6708333,4.13583706 L61.6708333,5.65963951 L61.7097222,5.65963951 C62.3486111,4.33905696 63.6076389,3.98602307 65.5430556,3.98602307 C67.7805556,3.98602307 70.9,4.07965681 70.9,8.16902379 L70.9,13.6164268 L67.2916667,13.6164268 L67.2916667,8.16902379 C67.2916667,7.23892862 66.5395833,6.77353425 64.9611111,6.77353425 L64.1347222,6.77353425 C62.5930556,6.77353425 61.6715278,7.48168277 61.6715278,8.83833165 L61.6715278,13.6164268 L58.0638889,13.6164268 L58.0638889,4.13583706 L58.0631944,4.13583706 Z"></path>
                            <path d="M72.7083333,7.74108291 C72.7083333,4.61787743 74.8326389,3.98602307 76.6736111,3.98602307 L82.0680556,3.98602307 C83.9104167,3.98602307 86.0333333,4.61787743 86.0333333,7.74108291 L86.0333333,10.0097938 C86.0333333,13.1329993 83.9104167,13.7655472 82.0680556,13.7655472 L76.6736111,13.7655472 C74.8326389,13.7655472 72.7083333,13.1329993 72.7083333,10.0097938 L72.7083333,7.74108291 Z M76.3166667,9.32175919 C76.3166667,10.6797952 77.125,11.0876222 78.7784722,11.0876222 L79.64375,11.0876222 C81.9736111,11.0876222 82.4243056,10.790075 82.4243056,9.52636626 L82.4243056,8.22381687 C82.4243056,6.96080173 81.9743056,6.66256092 79.64375,6.66256092 L78.7784722,6.66256092 C77.125,6.66256092 76.3166667,7.07177505 76.3166667,8.42911752 L76.3166667,9.32175919 Z"></path>
                            <path d="M88.8944444,6.70001442 L87.0895833,6.70001442 L87.0895833,4.13583706 L88.8944444,4.13583706 L88.8944444,1.9031925 L92.5027778,1.9031925 L92.5027778,4.13583706 L98.1027778,4.13583706 L98.1027778,6.70001442 L92.5027778,6.70001442 L92.5027778,10.3441009 C92.5027778,11.0522495 93.0284722,11.1992891 93.8930556,11.1992891 C95.0597222,11.1992891 95.3784722,10.9391954 95.3784722,10.0652805 L95.3784722,9.43273252 L98.5361111,9.43273252 L98.5361111,10.5861615 C98.5361111,12.389478 97.3326389,13.7655472 94.4576389,13.7655472 L93.0284722,13.7655472 C90.8118056,13.7655472 88.8944444,13.076819 88.8944444,10.4564614 L88.8944444,6.70001442 L88.8944444,6.70001442 Z"></path>
                            <path d="M100.438889,8.35490411 C100.438889,4.76699784 102.241667,3.98602307 104.872222,3.98602307 L107.393056,3.98602307 C111.225694,3.98602307 112.804861,4.785031 112.804861,8.07677722 L112.804861,9.67548666 L104.046528,9.67548666 L104.046528,10.2518544 C104.046528,11.2547758 104.761111,11.5349834 106.263889,11.5349834 L107.372917,11.5349834 C109.327083,11.5349834 109.420833,11.0134088 109.420833,10.4564614 L112.804861,10.4564614 L112.804861,10.864982 C112.804861,13.2453598 110.6625,13.7662408 108.049306,13.7662408 L105.34375,13.7662408 C102.95625,13.7662408 100.439583,13.3195732 100.439583,9.26627253 L100.439583,8.35490411 L100.438889,8.35490411 Z M109.309028,7.55658976 C109.309028,6.42119394 108.780556,6.21728046 106.677778,6.21728046 C104.329167,6.21728046 104.045833,6.42119394 104.045833,7.55658976 L109.309028,7.55658976 Z"></path>
                            <polygon points="123.542361 0.156056236 125.156944 0.156056236 125.156944 13.6164268 123.542361 13.6164268"></polygon>
                            <path d="M127.846528,0.156056236 L129.464583,0.156056236 L129.464583,1.90388609 L127.846528,1.90388609 L127.846528,0.156056236 Z M127.846528,4.13583706 L129.464583,4.13583706 L129.464583,13.6164268 L127.846528,13.6164268 L127.846528,4.13583706 Z"></path>
                            <path d="M132.302778,4.13583706 L133.808333,4.13583706 L133.808333,5.2497318 L133.845139,5.2497318 C134.520833,4.26484355 135.441667,3.98602307 137.058333,3.98602307 L139.671528,3.98602307 C141.136806,3.98602307 142.263194,4.56239077 142.772222,5.73385292 C143.372917,4.45141745 144.670139,3.98602307 146.323611,3.98602307 L148.279167,3.98602307 C150.872222,3.98602307 152.470139,5.10061139 152.470139,7.25834895 L152.470139,13.6164268 L150.852083,13.6164268 L150.852083,7.44422927 C150.852083,6.34767412 150.363889,5.28857246 147.788889,5.28857246 L146.643056,5.28857246 C143.730556,5.28857246 143.336111,6.47737419 143.336111,8.00256381 L143.336111,13.6171204 L141.718056,13.6171204 L141.718056,7.87217015 C141.718056,6.03209373 141.136806,5.28787888 138.563889,5.28787888 L136.944444,5.28787888 C134.876389,5.28787888 133.919444,6.14237347 133.919444,7.66756309 L133.919444,13.6164268 L132.303472,13.6164268 L132.303472,4.13583706 L132.302778,4.13583706 Z"></path>
                            <path d="M154.936111,0.156056236 L156.552778,0.156056236 L156.552778,1.90388609 L154.936111,1.90388609 L154.936111,0.156056236 Z M154.936111,4.13583706 L156.552778,4.13583706 L156.552778,13.6164268 L154.936111,13.6164268 L154.936111,4.13583706 Z"></path>
                            <path d="M160.634028,5.4363057 L158.526389,5.4363057 L158.526389,4.13583706 L160.634028,4.13583706 L160.634028,1.88446575 L162.249306,1.88446575 L162.249306,4.13583706 L168.658333,4.13583706 L168.658333,5.4363057 L162.249306,5.4363057 L162.249306,10.1589142 C162.249306,11.9254708 162.86875,12.464385 164.636111,12.464385 L165.142361,12.464385 C167.285417,12.464385 167.624306,12.0177174 167.624306,10.0285205 L167.624306,9.32175919 L168.938889,9.32175919 L168.938889,10.3628277 C168.938889,12.2597779 168.750694,13.7655472 165.25625,13.7655472 L164.373611,13.7655472 C161.347222,13.7655472 160.634722,12.314571 160.634722,10.7713482 L160.634722,5.4363057 L160.634028,5.4363057 Z"></path>
                            <path d="M170.804167,7.81598991 C170.804167,4.37651045 173.209722,3.98671665 175.502778,3.98671665 L178.094444,3.98671665 C180.991667,3.98671665 183.077778,4.71151118 183.077778,8.09550397 L183.077778,9.15460562 L172.420833,9.15460562 L172.420833,9.75039366 C172.420833,11.9067441 173.473611,12.464385 176.291667,12.464385 L178.508333,12.464385 C180.538194,12.464385 181.365278,12.2042913 181.459722,10.7540087 L183.077083,10.7540087 L183.077083,10.939889 C183.077083,13.1156597 181.252778,13.7662408 178.245139,13.7662408 L175.313889,13.7662408 C173.209028,13.7662408 170.803472,13.3757534 170.803472,9.87940014 L170.803472,7.81598991 L170.804167,7.81598991 Z M181.460417,7.22020187 C181.460417,6.25473396 180.726389,5.28787888 178.094444,5.28787888 L175.727778,5.28787888 C173.172917,5.28787888 172.572222,5.69639942 172.420833,7.85274982 L181.460417,7.85274982 L181.460417,7.22020187 Z"></path>
                            <path d="M197.383333,13.6164268 L195.879167,13.6164268 L195.879167,12.1106575 L195.842361,12.1106575 C195.370139,13.2633929 194.05625,13.7662408 192.3625,13.7662408 L190.108333,13.7662408 C187.177083,13.7662408 185.129167,13.0407527 185.129167,9.76842682 L185.129167,8.09481038 C185.129167,5.06454506 186.311111,3.98602307 190.202778,3.98602307 L192.666667,3.98602307 C194.507639,3.98602307 195.392361,4.41327037 195.728472,5.39815862 L195.765278,5.39815862 L195.765278,0.155362653 L197.383333,0.155362653 L197.383333,13.6164268 L197.383333,13.6164268 Z M186.746528,9.75039366 C186.746528,11.5911637 187.327778,12.464385 189.959028,12.464385 L192.589583,12.464385 C194.997917,12.464385 195.765278,11.4600764 195.765278,9.73166691 L195.765278,7.9283504 C195.765278,5.65963951 194.432639,5.28787888 192.251389,5.28787888 L190.070833,5.28787888 C187.854167,5.28787888 186.745833,5.69639942 186.745833,7.8908969 L186.745833,9.75039366 L186.746528,9.75039366 Z"></path>
                        </g>
                        <path d="M37.65,5.7262235 C41.3861111,5.7262235 44.6965278,7.56560634 46.7298611,10.3801673 C45.9569444,10.0736035 45.0951389,9.89604614 44.1479167,9.89604614 C40.0430556,9.89604614 37.4597222,13.1392415 37.4597222,16.7292286 L37.4597222,16.8173136 C37.4597222,20.4509964 40.0909722,23.7371939 44.2381944,23.7371939 C48.3430556,23.7371939 50.9270833,20.4953857 50.9270833,16.9026244 L50.9270833,16.81662 C50.9270833,16.5565263 50.9090278,16.3005941 50.8840278,16.0446619 C50.4368056,9.12478154 44.6916667,3.64131218 37.6493056,3.64131218 C36.2590278,3.64131218 34.9298611,3.88198558 33.6715278,4.27871521 C36.5472222,1.9448075 40.2416667,0.54030137 44.2736111,0.54030137 C53.4430556,0.54030137 60.8729167,7.79587599 60.8729167,16.7458745 C60.8729167,25.6972603 53.4430556,32.9514477 44.2736111,32.9514477 C35.1069444,32.9514477 27.6756944,25.6972603 27.6756944,16.7458745 C27.6756944,13.9965105 28.3805556,11.4129128 29.6180556,9.14350829 C31.6534722,7.04125739 34.4986111,5.7262235 37.65,5.7262235 Z" id="Shape"></path>
                    </g>
                </g>
            </g>
        </g>
    </g>
</svg>