<?xml version="1.0" encoding="UTF-8" standalone="no"?>
<svg width="24px" height="24px" viewBox="0 0 24 24" version="1.1" xmlns="http://www.w3.org/2000/svg" xmlns:xlink="http://www.w3.org/1999/xlink">
    <!-- Generator: Sketch 41.2 (35397) - http://www.bohemiancoding.com/sketch -->
    <title>pdf-icon</title>
    <desc>Created with Sketch.</desc>
    <defs></defs>
    <g id="Page-1" stroke="none" stroke-width="1" fill="none" fill-rule="evenodd">
        <g id="pdf-icon" fill="#EA2E49">
            <path d="M4.61851718,1.00086304 C4.28162484,1.03617383 3.99819695,1.35256022 4.00000864,1.69129117 L4.00000864,21.023279 C4.00004477,21.3847872 4.32893942,21.7136611 4.69043677,21.7137071 L19.4195703,21.7137071 C19.781067,21.7136611 20.1099617,21.3847872 20.1099985,21.023279 L20.1099985,4.91328914 C20.1104588,4.73237395 20.0363252,4.55240235 19.9086236,4.42423588 L16.6866256,1.20223791 C16.5584695,1.07453632 16.3784903,1.00042576 16.1975724,1.00086304 L4.69043677,1.00086304 C4.66648536,0.999712322 4.64246859,0.999712322 4.61851718,1.00086304 Z M5.38086491,2.38171931 L15.0468588,2.38171931 L15.0468588,5.37357456 C15.0468949,5.73508274 15.3757896,6.06395667 15.737287,6.0640027 L18.7291422,6.0640027 L18.7291422,20.3328508 L5.38086491,20.3328508 L5.38086491,2.38171931 Z M16.4277151,2.89234845 L18.2185131,4.68314643 L16.4277151,4.68314643 L16.4277151,2.89234845 Z M11.3645754,8.13528711 C10.7894389,8.13528711 10.2845352,8.39473619 9.97652719,8.75379565 C9.66851914,9.1128551 9.52343373,9.54734843 9.52343373,9.9764288 C9.52343373,10.6226833 9.83451947,11.0829435 10.1347503,11.5802358 C10.309885,11.8703095 10.4934082,12.163666 10.6597634,12.436079 C10.3630114,13.305833 10.0000199,14.288069 9.64569704,15.0683363 C9.23930276,15.1634432 8.76490498,15.2687961 8.30080057,15.4351263 C7.88554924,15.5839365 7.46921233,15.7871641 7.12131917,16.1327464 C6.77342601,16.4783286 6.53157847,16.9980829 6.53157847,17.5711383 C6.53157847,17.9513341 6.65756365,18.3345907 6.93432822,18.6499323 C7.21109278,18.9652738 7.65692731,19.1821373 8.14257745,19.1821373 C9.19082849,19.1821373 9.94068315,18.4495585 10.4296207,17.7221695 C10.7586578,17.2326787 10.9939333,16.7273902 11.1560086,16.2765855 C11.8551789,16.0483514 12.6404496,15.8256913 13.3351724,15.650885 C13.9350214,16.2117431 14.6874808,16.8807102 15.737287,16.8807102 C16.8624977,16.8807102 17.5784286,15.9835794 17.5784286,15.1762157 C17.5784286,14.759059 17.4327209,14.325286 17.1109513,13.9823504 C16.7891816,13.6394377 16.2922593,13.4285695 15.737287,13.4285695 C15.08998,13.4285695 14.4972486,13.6415861 13.9536809,13.8600871 C13.4902941,13.3392352 12.9415416,12.6545761 12.5584407,12.083673 C12.6458651,11.8728793 12.7322703,11.6538325 12.8173513,11.4435886 C13.014506,10.9563995 13.2057171,10.5118351 13.2057171,9.9764288 C13.2057171,9.58500438 13.0846064,9.17613974 12.7885835,8.80413936 C12.4925605,8.43213899 11.9737317,8.13528711 11.3645754,8.13528711 Z M11.3645754,9.51614338 C11.5794703,9.51614338 11.6364683,9.56784264 11.7097895,9.65998258 C11.7831107,9.75212251 11.8248608,9.92298737 11.8248608,9.9764288 C11.8248608,10.0704421 11.7210665,10.4713783 11.5371825,10.9257675 C11.5147758,10.9811398 11.4890656,11.0552458 11.4652629,11.1127584 C11.4157525,11.0336814 11.3599139,10.9366878 11.3142317,10.8610399 C11.0426334,10.4111822 10.90429,9.99679413 10.90429,9.9764288 C10.90429,9.89502733 10.950484,9.7414669 11.0265533,9.65279062 C11.1026226,9.56411433 11.1745947,9.51614338 11.3645754,9.51614338 Z M11.796093,13.3494579 C12.0859315,13.7473747 12.330782,14.0691257 12.6375523,14.4210599 C12.1545962,14.5464877 11.7222312,14.6643093 11.2279282,14.8166177 C11.4367021,14.3035145 11.6180861,13.8595462 11.796093,13.3494579 Z M15.737287,14.8094258 C15.9765228,14.8094258 16.049042,14.8658337 16.1040769,14.9244971 C16.1591118,14.9831605 16.1975724,15.0766099 16.1975724,15.1762157 C16.1975724,15.2585608 16.2127503,15.4998539 15.737287,15.4998539 C15.5188633,15.4998539 15.1833776,15.3045088 14.8167161,15.0395685 C15.1990547,14.9059706 15.5273618,14.8094258 15.737287,14.8094258 Z M9.50185785,16.5426881 C9.4286101,16.6814641 9.37125002,16.8259592 9.28609905,16.9526298 C8.92419089,17.4910486 8.5239405,17.801281 8.14257745,17.801281 C8.01263336,17.801281 7.99959278,17.7702923 7.96997042,17.7365534 C7.94034806,17.7027914 7.91243474,17.6358084 7.91243474,17.5711383 C7.91243474,17.3314677 7.96433906,17.2378917 8.09223374,17.1108529 C8.22012841,16.9838141 8.45768494,16.848191 8.76827795,16.736871 C8.98513683,16.6591518 9.24770389,16.6026632 9.50185785,16.5426881 Z" id="Shape"></path>
        </g>
    </g>
</svg>