<?xml version="1.0" encoding="UTF-8" standalone="no"?>
<svg width="24px" height="24px" viewBox="0 0 24 24" version="1.1" xmlns="http://www.w3.org/2000/svg" xmlns:xlink="http://www.w3.org/1999/xlink">
    <!-- Generator: Sketch 41.2 (35397) - http://www.bohemiancoding.com/sketch -->
    <title>presentation-icon</title>
    <desc>Created with Sketch.</desc>
    <defs></defs>
    <g id="Page-1" stroke="none" stroke-width="1" fill="none" fill-rule="evenodd">
        <g id="presentation-icon" fill="#EA2E49">
            <path d="M3.53750728,5.00081 C3.24473916,5.03149599 2.99843319,5.30644207 3.00000751,5.60080975 L3.00000751,16.0008054 C3.00003893,16.3149559 3.28585671,16.6007738 3.60000726,16.6008052 L11.400004,16.6008052 L11.400004,17.1695549 L9.41250483,17.8320546 C9.09624476,17.9145586 8.89175265,18.2901465 8.99408601,18.6005577 C9.09641956,18.9109692 9.484184,19.0913075 9.78750468,18.9695542 L12.0000038,18.2320545 L14.2125028,18.9695542 C14.5158235,19.0913075 14.9035879,18.9109692 15.0059215,18.6005577 C15.1082549,18.2901465 14.9037627,17.9145586 14.5875027,17.8320546 L12.6000035,17.1695549 L12.6000035,16.6008052 L20.4000003,16.6008052 C20.7141507,16.6007738 20.9999686,16.3149559 21,16.0008054 L21,5.60080975 C20.9999686,5.28665928 20.7141507,5.0008414 20.4000003,5.00081 L3.60000726,5.00081 C3.57919278,4.99973 3.55832175,4.99973 3.53750728,5.00081 Z M4.20000701,6.2008095 L19.8000005,6.2008095 L19.8000005,13.4008065 L4.20000701,13.4008065 L4.20000701,6.2008095 Z M4.20000701,14.600806 L19.8000005,14.600806 L19.8000005,15.4008057 L4.20000701,15.4008057 L4.20000701,14.600806 Z" id="Shape"></path>
        </g>
    </g>
</svg>