<?xml version="1.0" encoding="UTF-8" standalone="no"?>
<svg width="490px" height="479px" viewBox="0 0 490 479" version="1.1" xmlns="http://www.w3.org/2000/svg" xmlns:xlink="http://www.w3.org/1999/xlink">
    <!-- Generator: Sketch 41.2 (35397) - http://www.bohemiancoding.com/sketch -->
    <title>splash</title>
    <desc>Created with Sketch.</desc>
    <defs>
        <linearGradient x1="50%" y1="0%" x2="50%" y2="100%" id="linearGradient-1">
            <stop stop-color="#CCC9BF" offset="0%"></stop>
            <stop stop-color="#FFFBEE" offset="100%"></stop>
        </linearGradient>
        <linearGradient x1="0%" y1="31.7226201%" x2="86.620263%" y2="31.7226197%" id="linearGradient-2">
            <stop stop-color="#CCC9BF" offset="0%"></stop>
            <stop stop-color="#FFFBEE" offset="100%"></stop>
        </linearGradient>
        <linearGradient x1="50%" y1="0%" x2="50%" y2="100%" id="linearGradient-3">
            <stop stop-color="#FFFEF8" offset="0%"></stop>
            <stop stop-color="#FFFBEE" offset="100%"></stop>
        </linearGradient>
    </defs>
    <g id="assets" stroke="none" stroke-width="1" fill="none" fill-rule="evenodd">
        <g id="splash">
            <polygon id="Rectangle" fill="url(#linearGradient-1)" points="86.4612957 216.980699 261.460164 216.980699 373.876795 258.692482 201.750494 258.692482"></polygon>
            <polygon id="Rectangle" fill="url(#linearGradient-1)" points="58 277 149.452031 277 149.452031 336.972897 58 336.972897 75.6577869 306.986448"></polygon>
            <polygon id="Rectangle" fill="url(#linearGradient-2)" points="341 139 430.674559 139 414.123092 168.801114 430.674559 198.602228 341 198.602228"></polygon>
            <polygon id="Rectangle" fill="url(#linearGradient-3)" points="100.74085 259.739407 377.174305 259.739407 377.174305 318.762196 100.74085 318.762196"></polygon>
            <rect id="Rectangle" fill="url(#linearGradient-3)" x="86.1665325" y="157" width="303.898912" height="59.0227884"></rect>
            <path d="M232.25,24.334 L232.25,150.584 M232.25,13.5 L232.25,0 M203.16,104.104 L189.66,42.168 M213.66,152.334 L206.07,117.485 M177.83,102.5 L200,156.168 M131,82.668 L179.42,156.977 M116.5,123.334 L150.01,156.977 M81.93,137.453 L110.25,156.977 M31,102.5 L65.23,125.994 M42,156.168 L85.28,175.332 M62.99,202.17 L85.28,206.987 M15.16,191.834 L51.21,199.625 M127.49,238.168 L142.75,238.168 M0,238.168 L117,238.168 M67.74,271.041 L91.73,266.512 M13.5,282 L56.33,273.348 M68.16,302.668 L73,300.981 M63,346.668 L77.8,337.162 M73,397 L132.07,337.825 M148.5,362.5 L177.46,319.272 M196.83,319.168 L137.33,455.168 M189.33,434.428 L181.5,470 M213.5,324.668 L192.92,418.116 M232.16,324.5 L232.16,479 M232.16,326.168 L232.16,347.002 M275.69,434.524 L283.5,469.834 M251.33,324.334 L272.21,418.768 M267.93,320.188 L328,456.334 M287.2,319.278 L316.5,362.668 M313.77,319.278 L409.66,414.334 M359.39,319.278 L402,346.834 M377.37,294.844 L396.83,302.5 M407.54,272.977 L451.33,282 M376.43,266.567 L396.53,270.709 M385.49,238.334 L490,238.334 M320.83,238.334 L375.5,238.334 M430.51,196.321 L465.16,188.834 M390.65,204.93 L416.92,199.254 M398.82,126.239 L433.16,102.834 M314.29,156.977 L348,123.168 M285.14,156.977 L334.16,82.834 M263.63,81.461 L274.16,30 M249.16,152.168 L261.17,93.469 M320.96,223.004 L347.23,217.328 M265,156.334 L286.83,102.168" id="Burst" stroke="#253A79" stroke-width="4" stroke-linecap="round" stroke-linejoin="round"></path>
            <g id="2-Ribbon-with-Flair" transform="translate(58.000000, 139.000000)" stroke="#253A79" stroke-linecap="round" stroke-linejoin="round">
                <path d="M92.01,198.162 L0.67,198.162 L18.67,168.274 L0.67,137.996 L41.66,137.996 M41.67,180.272 L92.01,198.162 L92.01,180.272" id="Stroke-203" stroke-width="4"></path>
                <path d="M36.9,191.764 L43.52,191.764 M49.19,191.764 L74.69,191.764 M4.47,191.764 L29.96,191.764 M13.19,185.764 L46.31,185.764 M52.02,185.764 L57.81,185.764 M11.45,179.786 L41.56,179.786 M15.29,173.918 L33.27,173.918 M38.77,173.918 L40.94,173.918 M18.21,167.942 L27.33,167.942 M33.4,167.938 L41.81,167.938 M15,161.981 L41.67,161.981 M11.38,156.004 L28.06,156.004 M33.73,156.004 L41.81,156.004 M12.33,150.004 L41.56,150.004 M15.55,144.028 L41.81,144.028 M4.47,144.028 L11.22,144.028" id="Stroke-204" stroke-width="3"></path>
                <polygon id="Stroke-205" stroke-width="4" points="27.28 78.145 332.65 78.145 332.65 17.977 27.28 17.977"></polygon>
                <path d="M38.61,71.93 L67.15,71.93 M27.53,71.93 L34.28,71.93 M27.28,24.354 L33.9,24.354 M39.57,24.354 L65.07,24.354 M27.28,30.354 L60.4,30.354 M66.11,30.354 L71.9,30.354 M27.28,36.332 L66.78,36.332 M27.28,42.2 L55.57,42.2 M61.07,42.2 L63.23,42.2 M27.28,48.176 L36.4,48.176 M42.46,48.176 L70.57,48.176 M27.28,54.135 L66.78,54.135 M27.28,60.114 L51.32,60.114 M56.99,60.114 L65.07,60.114 M31.84,66.114 L61.07,66.114 M327.15,71.93 L332.65,71.93 M328.86,65.93 L332.65,65.93 M323.15,59.953 L332.65,59.953 M324.69,54.086 L331.76,54.086 M326.55,48.108 L332.65,48.108 M323.15,42.149 L332.65,42.149 M318.86,36.172 L323.91,36.172 M328.57,36.172 L332.65,36.172 M323.42,30.172 L332.65,30.172 M328.11,24.194 L332.65,24.194" id="Stroke-206" stroke-width="3"></path>
                <path d="M282.32,0.086 L373.65,0.086 L355.65,29.977 L373.65,60.254 L332.66,60.254 M332.65,17.977 L282.32,0.086 L282.32,17.977" id="Stroke-209" stroke-width="4"></path>
                <path d="M282.32,12.004 L299.45,17.973 M299.99,12.184 L316.53,17.977 M287.2,7.703 L294.8,10.368 M312.93,126.063 L318.43,126.063 M314.64,132.063 L318.43,132.063 M308.93,138.041 L318.43,138.041 M310.48,143.909 L317.54,143.909 M312.33,149.887 L318.43,149.887 M308.93,155.844 L318.43,155.844 M304.64,161.823 L309.69,161.823 M314.35,161.823 L318.43,161.823 M309.2,167.823 L318.43,167.823 M313.89,173.801 L318.43,173.801" id="Stroke-210" stroke-width="3"></path>
                <polygon id="Stroke-211" stroke-width="4" points="41.78 180.129 318.72 180.129 318.72 119.963 41.78 119.963"></polygon>
                <path d="M41.81,173.918 L48.44,173.918 M54.1,173.918 L79.6,173.918 M41.78,167.754 L74.9,167.754 M80.61,167.754 L86.4,167.754 M41.78,161.778 L81.28,161.778 M41.78,155.911 L70.07,155.911 M75.57,155.911 L77.73,155.911 M41.78,149.932 L50.9,149.932 M56.96,149.932 L85.07,149.932 M41.78,143.973 L81.28,143.973 M41.78,137.996 L65.82,137.996 M71.49,137.996 L79.57,137.996 M46.34,131.996 L75.57,131.996 M52.73,126.018 L81.28,126.018 M41.65,126.018 L48.4,126.018" id="Stroke-212" stroke-width="3"></path>
                <path d="M199.33,78.153 L318.72,119.963 M146.91,119.961 L27.53,78.149" id="Stroke-213" stroke-width="4"></path>
                <path d="M74.74,88.354 L81.26,90.637 M45.6,78.149 L70.29,86.793 M62.74,78.153 L98.76,90.768 M79.8,78.151 L119.77,92.147 M96.87,78.145 L144.24,94.793 M154.2,92.36 L157.62,93.559 M113.63,78.153 L148.12,90.231 M130.64,78.149 L174.64,93.559 M147.7,78.149 L191.7,93.559 M185.41,85.356 L212.36,94.793 M164.84,78.149 L179.39,83.246 M221.01,91.793 L228.62,94.455 M181.9,78.145 L215.43,89.838" id="Stroke-214" stroke-width="3"></path>
            </g>
            <g id="Text" transform="translate(179.000000, 170.000000)" fill="#EA2E49">
                <text id="REQUEST" font-family="AvenirNext-DemiBold, Avenir Next" font-size="24" font-weight="500" letter-spacing="3">
                    <tspan x="0.088" y="126.14">REQUEST</tspan>
                </text>
                <path d="M137.925,121.34 L134.325,121.34 L134.325,106.76 L137.925,106.76 L137.925,121.34 Z M133.725,125.9 C133.725,125.259997 133.959998,124.710002 134.43,124.25 C134.900002,123.789998 135.464997,123.56 136.125,123.56 C136.765003,123.56 137.324998,123.779998 137.805,124.22 C138.285002,124.660002 138.525,125.199997 138.525,125.84 C138.525,126.480003 138.290002,127.029998 137.82,127.49 C137.349998,127.950002 136.785003,128.18 136.125,128.18 C135.804998,128.18 135.500001,128.120001 135.21,128 C134.919999,127.879999 134.665001,127.720001 134.445,127.52 C134.224999,127.319999 134.050001,127.080001 133.92,126.8 C133.789999,126.519999 133.725,126.220002 133.725,125.9 Z" id="!" transform="translate(136.125000, 117.470000) rotate(8.000000) translate(-136.125000, -117.470000) "></path>
                <text id="MAKE-A" font-family="AvenirNext-DemiBold, Avenir Next" font-size="24" font-weight="500" letter-spacing="3">
                    <tspan x="3.724" y="24.14">MAKE A</tspan>
                </text>
            </g>
        </g>
    </g>
</svg>