<?xml version="1.0" encoding="UTF-8"?>
<svg width="24px" height="24px" viewBox="0 0 24 24" version="1.1" xmlns="http://www.w3.org/2000/svg" xmlns:xlink="http://www.w3.org/1999/xlink">
    <!-- Generator: Sketch 45.2 (43514) - http://www.bohemiancoding.com/sketch -->
    <title>img/vid-icon</title>
    <desc>Created with Sketch.</desc>
    <defs></defs>
    <g id="assets" stroke="none" stroke-width="1" fill="none" fill-rule="evenodd">
        <g id="img/vid-icon" fill-rule="nonzero" fill="#EA2E49">
            <path d="M18.3313333,18 L5.668,18 C4.74866667,18 4,17.27005 4,16.37305 L4,6.6263 C4,5.72995 4.74866667,5 5.668,5 L18.3313333,5 C19.2513333,5 20,5.72995 20,6.6263 L20,16.37305 C20,17.27005 19.2513333,18 18.3313333,18 Z M5.668,6.3 C5.484,6.3 5.33333333,6.4469 5.33333333,6.6263 L5.33333333,16.37305 C5.33333333,16.5531 5.484,16.7 5.668,16.7 L18.3313333,16.7 C18.516,16.7 18.6666667,16.5531 18.6666667,16.37305 L18.6666667,6.6263 C18.6666667,6.4469 18.516,6.3 18.3313333,6.3 L5.668,6.3 Z M10.226,14.5901 C10.0706667,14.5901 9.91533333,14.55045 9.77733333,14.47245 C9.50333333,14.3171 9.33333333,14.02915 9.33333333,13.71975 L9.33333333,9.28025 C9.33333333,8.97085 9.50333333,8.6829 9.778,8.52755 C10.052,8.3722 10.394,8.3709 10.6693333,8.52495 L14.6533333,10.7447 L14.654,10.7447 C14.9306667,10.8994 15.1033333,11.1893 15.1033333,11.50065 C15.1033333,11.812 14.9306667,12.10125 14.654,12.25595 L10.6693333,14.47635 C10.5326667,14.55175 10.3793333,14.5901 10.226,14.5901 Z M10.6666667,10.01995 L10.6666667,12.98005 L13.3233333,11.5 L10.6666667,10.01995 Z M6,15.4 C6,15.0425 6.3,14.75 6.66666667,14.75 C7.03333333,14.75 7.33333333,15.0425 7.33333333,15.4 C7.33333333,15.7575 7.03333333,16.05 6.66666667,16.05 C6.3,16.05 6,15.7575 6,15.4 Z M6,12.8 C6,12.4425 6.3,12.15 6.66666667,12.15 C7.03333333,12.15 7.33333333,12.4425 7.33333333,12.8 C7.33333333,13.1575 7.03333333,13.45 6.66666667,13.45 C6.3,13.45 6,13.1575 6,12.8 Z M6,10.2 C6,9.8425 6.3,9.55 6.66666667,9.55 C7.03333333,9.55 7.33333333,9.8425 7.33333333,10.2 C7.33333333,10.5575 7.03333333,10.85 6.66666667,10.85 C6.3,10.85 6,10.5575 6,10.2 Z M6,7.6 C6,7.2425 6.3,6.95 6.66666667,6.95 C7.03333333,6.95 7.33333333,7.2425 7.33333333,7.6 C7.33333333,7.9575 7.03333333,8.25 6.66666667,8.25 C6.3,8.25 6,7.9575 6,7.6 Z M16.6666667,15.4 C16.6666667,15.0425 16.9666667,14.75 17.3333333,14.75 C17.7,14.75 18,15.0425 18,15.4 C18,15.7575 17.7,16.05 17.3333333,16.05 C16.9666667,16.05 16.6666667,15.7575 16.6666667,15.4 Z M16.6666667,12.8 C16.6666667,12.4425 16.9666667,12.15 17.3333333,12.15 C17.7,12.15 18,12.4425 18,12.8 C18,13.1575 17.7,13.45 17.3333333,13.45 C16.9666667,13.45 16.6666667,13.1575 16.6666667,12.8 Z M16.6666667,10.2 C16.6666667,9.8425 16.9666667,9.55 17.3333333,9.55 C17.7,9.55 18,9.8425 18,10.2 C18,10.5575 17.7,10.85 17.3333333,10.85 C16.9666667,10.85 16.6666667,10.5575 16.6666667,10.2 Z M16.6666667,7.6 C16.6666667,7.2425 16.9666667,6.95 17.3333333,6.95 C17.7,6.95 18,7.2425 18,7.6 C18,7.9575 17.7,8.25 17.3333333,8.25 C16.9666667,8.25 16.6666667,7.9575 16.6666667,7.6 Z" id="Shape"></path>
        </g>
    </g>
</svg>